<?xml version="1.0" standalone="no"?>
<!DOCTYPE svg PUBLIC "-//W3C//DTD SVG 20010904//EN"
 "http://www.w3.org/TR/2001/REC-SVG-20010904/DTD/svg10.dtd">
<svg version="1.0" xmlns="http://www.w3.org/2000/svg"
 width="1024.000000pt" height="1024.000000pt" viewBox="0 0 1024.000000 1024.000000"
 preserveAspectRatio="xMidYMid meet">

<g transform="translate(0.000000,1024.000000) scale(0.100000,-0.100000)"
fill="#000000" stroke="none">
<path d="M1260 8579 c0 -5 73 -128 163 -272 90 -144 263 -423 386 -619 l222
-358 1096 0 1095 0 -70 -132 c-38 -73 -127 -243 -197 -378 -70 -135 -212 -405
-315 -600 -103 -195 -247 -470 -320 -610 -73 -140 -148 -280 -165 -311 l-32
-56 64 -114 c36 -63 170 -301 298 -529 128 -228 302 -539 387 -690 85 -151
300 -534 478 -850 870 -1551 890 -1585 905 -1568 7 7 72 119 145 248 74 129
215 375 313 545 99 171 217 376 262 458 l83 147 -88 160 c-49 88 -144 257
-213 377 -68 120 -186 328 -262 463 -77 135 -231 407 -343 605 -270 474 -372
657 -372 668 0 4 85 168 189 365 104 196 300 571 436 832 136 261 306 586 378
723 l131 247 1257 0 1257 0 139 243 c77 133 237 411 356 619 120 207 217 381
217 387 0 8 -1097 11 -3940 11 -2751 0 -3940 -3 -3940 -11z"/>
<path d="M6384 6658 c-53 -105 -450 -866 -608 -1168 -102 -195 -186 -360 -186
-365 0 -6 40 -80 88 -165 420 -737 757 -1328 768 -1344 11 -17 17 -10 54 64
36 72 470 877 735 1365 51 94 163 303 250 465 136 255 313 583 561 1043 35 65
64 122 64 128 0 5 -325 9 -855 9 l-854 0 -17 -32z"/>
</g>
</svg>
